<!DOCTYPE svg PUBLIC "-//W3C//DTD SVG 1.1//EN" "http://www.w3.org/Graphics/SVG/1.1/DTD/svg11.dtd">
<!-- Uploaded to: SVG Repo, www.svgrepo.com, Transformed by: SVG Repo Mixer Tools -->
<svg fill="#e5a466" height="800px" width="800px" version="1.1" id="Layer_1" xmlns="http://www.w3.org/2000/svg" xmlns:xlink="http://www.w3.org/1999/xlink" viewBox="0 0 512 512" xml:space="preserve" stroke="#e5a466">
<g id="SVGRepo_bgCarrier" stroke-width="0"/>
<g id="SVGRepo_tracerCarrier" stroke-linecap="round" stroke-linejoin="round"/>
<g id="SVGRepo_iconCarrier"> <g> <g> <path d="M444.125,34.205h-18.41C421.959,14.745,404.807,0,384.267,0H93.528C70.248,0,51.307,18.941,51.307,42.221v68.409 c0,13.851,11.268,25.119,25.119,25.119h13.44l35.25,338.404C127.364,495.729,145.418,512,167.111,512h174.401 c27.995,0,50.772-22.777,50.772-50.772c0-21.857-13.883-40.53-33.293-47.67l3.966-38.069c0.459-4.404-2.74-8.345-7.143-8.803 c-4.405-0.462-8.346,2.74-8.804,7.143l-3.82,36.671c-0.558-0.018-1.115-0.043-1.678-0.043c-27.995,0-50.772,22.777-50.772,50.772 c0,13.43,5.251,25.649,13.795,34.739H167.111c-13.455,0-24.653-10.091-26.047-23.474l-35.078-336.744h265.822l-21.455,205.97 c-0.459,4.404,2.74,8.345,7.143,8.803c0.283,0.03,0.562,0.044,0.84,0.044c4.054,0,7.535-3.066,7.964-7.187l21.628-207.63h13.44 c13.851,0,25.119-11.268,25.119-25.119V84.443h17.637c9.136,0,16.568-7.432,16.568-16.568V50.772 C460.693,41.637,453.261,34.205,444.125,34.205z M341.511,426.489c19.156,0,34.739,15.584,34.739,34.739 c0,19.155-15.583,34.739-34.739,34.739s-34.739-15.584-34.739-34.739C306.772,442.073,322.356,426.489,341.511,426.489z M410.455,51.307h-265.62c-4.428,0-8.017,3.589-8.017,8.017s3.588,8.017,8.017,8.017h265.62v43.29c0,5.01-4.076,9.086-9.086,9.086 H76.426c-5.01,0-9.086-4.076-9.086-9.086V67.34h42.756c4.428,0,8.017-3.589,8.017-8.017s-3.588-8.017-8.017-8.017H67.34v-9.086 c0-14.44,11.747-26.188,26.188-26.188h290.739c14.441,0,26.188,11.748,26.188,26.188V51.307z M444.66,67.875 c0,0.295-0.241,0.534-0.534,0.534h-17.637V50.238h17.637c0.294,0,0.534,0.239,0.534,0.534V67.875z"/> </g> </g> <g> <g> <path d="M341.511,436.109c-13.851,0-25.119,11.268-25.119,25.119c0,13.851,11.268,25.119,25.119,25.119 c13.851,0,25.119-11.268,25.119-25.119C366.63,447.377,355.362,436.109,341.511,436.109z M341.511,470.313 c-5.01,0-9.086-4.076-9.086-9.086c0-5.01,4.076-9.086,9.086-9.086c5.01,0,9.086,4.076,9.086,9.086 C350.597,466.237,346.521,470.313,341.511,470.313z"/> </g> </g> <g> <g> <path d="M211.373,333.495h-38.866c-3.219,0-6.036-1.57-7.728-4.309c-1.692-2.739-1.837-5.96-0.398-8.84l31.252-62.505l1.283,5.129 c1.089,4.354,5.708,7.004,10.019,5.753c4.082-1.185,6.566-5.52,5.536-9.641l-5.866-23.464c-1.074-4.296-5.429-6.906-9.723-5.833 l-0.56,0.14c-1.102,0.043-2.179,0.317-3.167,0.792l-19.736,4.934c-4.296,1.073-6.906,5.427-5.833,9.722 c1.075,4.297,5.432,6.908,9.723,5.833l4.25-1.063l-31.516,63.034c-3.923,7.844-3.512,16.979,1.098,24.438 c4.61,7.46,12.598,11.914,21.367,11.914h38.866c4.428,0,8.017-3.589,8.017-8.017S215.801,333.495,211.373,333.495z"/> </g> </g> <g> <g> <path d="M327.755,313.175l-14.936-29.871c-1.979-3.96-6.793-5.565-10.756-3.585c-3.959,1.98-5.565,6.795-3.585,10.755 l14.936,29.871c2.981,5.962-1.485,13.148-8.127,13.148h-47.036l3.417-3.417c3.131-3.131,3.131-8.207,0-11.337 c-3.132-3.131-8.207-3.131-11.338,0l-17.102,17.102c-3.131,3.131-3.131,8.207,0,11.337l17.102,17.102 c3.261,3.26,8.766,3.041,11.764-0.46c2.686-3.137,2.493-7.959-0.425-10.877l-3.417-3.416h47.036 c8.769,0,16.758-4.454,21.368-11.914C331.266,330.154,331.677,321.019,327.755,313.175z"/> </g> </g> <g> <g> <path d="M302.838,232.188c-4.237-1.058-8.661,1.596-9.723,5.833l-0.979,3.916l-30.772-61.545 c-4.282-8.565-12.892-13.885-22.467-13.885s-18.185,5.321-22.467,13.885l-14.472,28.945c-1.981,3.96-0.375,8.776,3.585,10.755 c3.962,1.981,8.777,0.375,10.756-3.585l14.472-28.945c1.573-3.143,4.611-5.021,8.127-5.021c3.516,0,6.553,1.877,8.127,5.022 l31.773,63.545l-5.289-1.322c-4.298-1.074-8.647,1.537-9.723,5.833c-1.073,4.295,1.537,8.647,5.833,9.722l23.463,5.866 c4.24,1.06,8.662-1.595,9.723-5.833l5.866-23.464C309.729,237.673,307.076,233.246,302.838,232.188z"/> </g> </g> </g>
</svg>