<svg width="139" height="36" viewBox="0 0 139 36" fill="none" xmlns="http://www.w3.org/2000/svg">
<path d="M24.4282 0.595459H22.7229V23.1529H25.0352V12.7391L34.2502 12.7073V10.5768L25.0352 10.6055V2.6973H34.8259V0.595459H25.0352H24.4282Z" fill="#123828"/>
<path d="M42.0633 12.7391H51.5818V10.6373H42.0633V2.7291H52.2795V0.595459H42.0633H41.5157H39.751V23.1529H41.5157H42.0633H52.6143V21.0225H42.0633V12.7391Z" fill="#123828"/>
<path d="M74.4173 3.9469C73.4441 2.88485 72.227 2.04538 70.7688 1.4285C69.3076 0.81162 67.5866 0.5 65.5997 0.5H58.0901V23.2769H65.5997C67.6054 23.2769 69.3451 22.9525 70.8158 22.3038C72.2864 21.6552 73.4973 20.7903 74.4485 19.7091C75.3998 18.628 76.1101 17.4292 76.5763 16.1096C77.0425 14.7932 77.274 13.464 77.274 12.1221V11.5339C77.274 10.1729 77.0425 8.83424 76.5763 7.51781C76.1101 6.19819 75.3904 5.00895 74.4173 3.95008V3.9469ZM74.3578 15.3942C73.9729 16.5071 73.3941 17.4896 72.6243 18.345C71.8546 19.2004 70.9065 19.8745 69.7801 20.3705C68.6536 20.8634 67.3426 21.1114 65.8438 21.1114H60.4024V2.66544H65.8438C67.3238 2.66544 68.6255 2.89121 69.7519 3.34592C70.8784 3.80063 71.8233 4.4493 72.5962 5.29195C73.3659 6.13778 73.9479 7.11397 74.3453 8.2269C74.7396 9.33983 74.9367 10.545 74.9367 11.8423C74.9367 13.1397 74.7427 14.2844 74.3578 15.3973V15.3942Z" fill="#123828"/>
<path d="M84.5709 12.7391H94.0894V10.6373H84.5709V2.7291H94.7903V0.595459H84.5709H84.0234H82.2617V23.1529H84.0234H84.5709H95.122V21.0225H84.5709V12.7391Z" fill="#123828"/>
<path d="M116.984 21.0225H116.621L104.459 0.595459H100.598V23.1529H102.785V2.7291H103.151L115.313 23.1529H119.206V0.595459H116.984V21.0225Z" fill="#123828"/>
<path d="M128.449 21.0225V12.7391H137.967V10.6373H128.449V2.7291H138.665V0.595459H128.449H127.901H126.137V23.1529H127.901H128.449H139V21.0225H128.449Z" fill="#123828"/>
<path d="M27.091 28.9814C26.8375 28.7079 26.5215 28.4917 26.1429 28.3296C25.7611 28.1674 25.3137 28.0879 24.8005 28.0879H22.848V33.9483H24.8005C25.3168 33.9483 25.7643 33.8656 26.1429 33.697C26.5215 33.5317 26.8406 33.3091 27.091 33.0357C27.3444 32.759 27.5322 32.4538 27.6573 32.1135C27.7825 31.7765 27.8451 31.4362 27.8451 31.096V30.9211C27.8451 30.5713 27.7825 30.2279 27.6573 29.894C27.5322 29.557 27.3444 29.2549 27.091 28.9814ZM26.9157 31.8846C26.8156 32.1548 26.6717 32.3902 26.4808 32.5905C26.2899 32.7908 26.0615 32.9498 25.7924 33.0643C25.5233 33.1787 25.2198 33.236 24.8756 33.236H23.6115V28.8065H24.8756C25.2198 28.8065 25.5265 28.8606 25.7924 28.9655C26.0584 29.0704 26.2899 29.2231 26.4808 29.4234C26.6717 29.6206 26.8156 29.8559 26.9157 30.123C27.0159 30.3901 27.0628 30.689 27.0628 31.0165C27.0628 31.344 27.0127 31.6206 26.9157 31.8909V31.8846Z" fill="#123828"/>
<path d="M31.8471 27.4836H31.0586L30.3702 29.0545H30.9803L31.8471 27.4836Z" fill="#123828"/>
<path d="M31.8721 29.8304C31.578 29.6332 31.2056 29.5315 30.7519 29.5315C30.4015 29.5315 30.1011 29.5951 29.8414 29.7191C29.5848 29.8431 29.372 30.0116 29.2031 30.2183C29.0372 30.4282 28.9121 30.6603 28.8307 30.9211C28.7494 31.1818 28.7087 31.4489 28.7087 31.7224V31.8655C28.7087 32.1357 28.7494 32.3997 28.8307 32.6604C28.9121 32.9212 29.0341 33.1533 29.2031 33.3631C29.3689 33.573 29.5848 33.7415 29.8508 33.8687C30.1167 33.9959 30.4328 34.0595 30.7957 34.0595C31.1243 34.0595 31.4184 34.0055 31.6781 33.8942C31.9378 33.7829 32.1537 33.6207 32.3258 33.4108C32.4979 33.201 32.6137 32.9466 32.67 32.6572H31.966C31.9253 32.8544 31.8001 33.0261 31.5936 33.1724C31.3871 33.3218 31.1211 33.3949 30.7926 33.3949C30.4641 33.3949 30.2231 33.325 30.0197 33.1851C29.8163 33.0452 29.6662 32.8544 29.5692 32.6127C29.4878 32.4124 29.444 32.1866 29.4315 31.9418H32.7388V31.6015C32.7388 31.2486 32.6669 30.9147 32.5229 30.5999C32.379 30.2883 32.16 30.0307 31.8658 29.8336L31.8721 29.8304ZM30.0135 30.4059C30.2075 30.2692 30.4547 30.1993 30.7519 30.1993C31.0492 30.1993 31.2745 30.2597 31.4622 30.3805C31.6499 30.5013 31.7908 30.673 31.8846 30.8924C31.9441 31.0324 31.9785 31.1913 32.0004 31.3662H29.4659C29.4909 31.2231 29.5253 31.0928 29.5754 30.9688C29.6724 30.7303 29.8163 30.5427 30.0135 30.4059Z" fill="#123828"/>
<path d="M36.7283 32.9053C36.625 33.0483 36.4874 33.1628 36.3153 33.2455C36.1432 33.3313 35.9398 33.3727 35.7051 33.3727C35.4016 33.3727 35.1513 33.3027 34.951 33.1628C34.7508 33.0229 34.6006 32.8321 34.5004 32.5905C34.4003 32.3488 34.3534 32.0849 34.3534 31.7923C34.3534 31.4998 34.4034 31.22 34.5004 30.9815C34.5974 30.743 34.7476 30.5554 34.9448 30.4187C35.1419 30.2819 35.3891 30.212 35.6863 30.212C36.0305 30.212 36.3028 30.301 36.5061 30.4791C36.7095 30.6571 36.8284 30.8765 36.866 31.1405H37.5856C37.5637 30.813 37.4699 30.5268 37.3009 30.2883C37.1319 30.0466 36.9067 29.8622 36.6282 29.7286C36.3497 29.5951 36.0368 29.5315 35.6863 29.5315C35.3359 29.5315 35.0324 29.5951 34.7727 29.7223C34.513 29.8495 34.2939 30.018 34.1218 30.2247C33.9466 30.4346 33.8183 30.6667 33.7307 30.9274C33.6462 31.1882 33.6024 31.4521 33.6024 31.7224V31.8655C33.6024 32.1262 33.6462 32.3838 33.7307 32.6445C33.8152 32.9053 33.9466 33.1406 34.1187 33.3568C34.2908 33.5698 34.5067 33.7415 34.7695 33.8687C35.0324 33.9959 35.3421 34.0595 35.702 34.0595C36.0618 34.0595 36.3747 33.9927 36.6595 33.856C36.9442 33.7225 37.1726 33.5317 37.3478 33.2868C37.5231 33.042 37.6169 32.7558 37.6326 32.4219H36.9129C36.891 32.6032 36.8284 32.7622 36.7252 32.9053H36.7283Z" fill="#123828"/>
<path d="M41.0807 29.7825C40.8085 29.6808 40.4612 29.6267 40.0325 29.6267C39.9074 29.6267 39.776 29.6267 39.6414 29.6299C39.5069 29.6299 39.3754 29.6363 39.2471 29.6458C39.1189 29.6521 39 29.6617 38.8842 29.6744V30.3422C39 30.3326 39.1345 30.3231 39.291 30.3167C39.4474 30.3104 39.6101 30.3072 39.7822 30.3008C39.9543 30.2945 40.1201 30.2913 40.2829 30.2913C40.5707 30.2913 40.7866 30.3644 40.9337 30.5139C41.0808 30.6633 41.1558 30.8827 41.1558 31.1721V31.277H40.1014C39.7415 31.277 39.4349 31.3279 39.1783 31.4328C38.9217 31.5378 38.7277 31.6872 38.5963 31.8907C38.4649 32.0911 38.3961 32.3423 38.3961 32.6443C38.3961 32.9464 38.4586 33.1849 38.5807 33.3916C38.7027 33.5983 38.8779 33.7541 39.1032 33.8654C39.3285 33.9767 39.6007 34.0275 39.9105 34.0275C40.2015 34.0275 40.4518 33.9735 40.6552 33.8686C40.8617 33.7636 41.0213 33.6078 41.1402 33.4043C41.1965 33.3057 41.2403 33.1976 41.2779 33.0768V33.9163H41.8724V31.2325C41.8724 30.835 41.8067 30.5202 41.6784 30.2881C41.5501 30.056 41.3467 29.8875 41.0776 29.7825H41.0807ZM40.9837 32.9909C40.8774 33.1467 40.7428 33.258 40.5801 33.3248C40.4174 33.3916 40.2484 33.4234 40.0732 33.4234C39.7697 33.4234 39.5381 33.3534 39.3786 33.2103C39.2159 33.0672 39.1376 32.8796 39.1376 32.6475C39.1376 32.4154 39.219 32.2246 39.3786 32.0752C39.5413 31.9257 39.7728 31.8526 40.0732 31.8526H41.159V32.3454C41.1496 32.6221 41.0901 32.8351 40.9837 32.9909Z" fill="#123828"/>
<path d="M44.3193 30.0592C44.1222 30.269 44.0001 30.5711 43.9469 30.9559V29.6744H43.3524V33.9131H44.1034V31.6173C44.1034 31.1944 44.216 30.87 44.4382 30.6442C44.6635 30.4185 44.9826 30.3072 45.3988 30.3072H45.6648V29.6235H45.524C44.9889 29.6235 44.5852 29.7666 44.3162 30.056L44.3193 30.0592Z" fill="#123828"/>
<path d="M50.377 30.1706C50.1987 29.9735 49.989 29.8145 49.745 29.7032C49.5009 29.5887 49.2287 29.5315 48.9314 29.5315C48.6123 29.5315 48.3244 29.6014 48.0616 29.7413C47.7987 29.8812 47.5859 30.0975 47.4232 30.3868C47.4232 30.3932 47.417 30.3995 47.417 30.4027V28.1165H46.666V33.9132H47.2605V33.0324C47.2793 33.0738 47.2949 33.1151 47.3137 33.1533C47.4702 33.4458 47.6829 33.6716 47.952 33.8242C48.2211 33.9768 48.5246 34.0531 48.8688 34.0531C49.1755 34.0531 49.4571 33.9959 49.7074 33.8782C49.9609 33.7606 50.1768 33.6016 50.3582 33.3981C50.5397 33.1946 50.6805 32.9593 50.7775 32.6954C50.8745 32.4314 50.9215 32.1484 50.9215 31.8464V31.7033C50.9215 31.4012 50.8745 31.1214 50.7807 30.8574C50.6868 30.5967 50.5522 30.3646 50.3739 30.1674L50.377 30.1706ZM50.0015 32.6159C49.8858 32.8575 49.7262 33.0451 49.5165 33.185C49.3069 33.3218 49.0628 33.3917 48.7812 33.3917C48.5372 33.3917 48.3056 33.3377 48.0928 33.2264C47.8801 33.1151 47.708 32.9561 47.5766 32.7494C47.4451 32.5427 47.3826 32.2947 47.3826 32.0022V31.6365C47.3826 31.3344 47.4451 31.0768 47.5734 30.8638C47.7017 30.6508 47.8707 30.4854 48.0866 30.3709C48.2994 30.2565 48.5309 30.1992 48.7812 30.1992C49.0566 30.1992 49.3006 30.2628 49.5072 30.3932C49.7168 30.5236 49.8795 30.708 49.9953 30.9465C50.1111 31.185 50.1705 31.4616 50.1705 31.7796C50.1705 32.0976 50.1142 32.3774 49.9984 32.6159H50.0015Z" fill="#123828"/>
<path d="M55.7214 30.2183C55.5274 30.0085 55.2927 29.8431 55.0174 29.7191C54.742 29.5951 54.426 29.5315 54.0724 29.5315C53.7189 29.5315 53.4028 29.5951 53.1275 29.7191C52.8521 29.8431 52.6174 30.0116 52.4234 30.2183C52.2294 30.4282 52.0855 30.6635 51.9854 30.9242C51.8853 31.185 51.8383 31.4521 51.8383 31.7224V31.8655C51.8383 32.1357 51.8853 32.3997 51.9823 32.6604C52.0793 32.9212 52.2232 33.1533 52.4109 33.3631C52.6018 33.573 52.8333 33.7415 53.1087 33.8687C53.384 33.9959 53.7063 34.0595 54.0693 34.0595C54.4323 34.0595 54.7546 33.9959 55.0299 33.8687C55.3053 33.7415 55.5399 33.573 55.7277 33.3631C55.9185 33.1533 56.0594 32.9212 56.1564 32.6604C56.2534 32.3997 56.3003 32.1357 56.3003 31.8655V31.7224C56.3003 31.4521 56.2502 31.185 56.1532 30.9242C56.0531 30.6635 55.9092 30.4282 55.7152 30.2183H55.7214ZM55.3804 32.5968C55.2646 32.8353 55.0925 33.0229 54.8735 33.166C54.6513 33.3059 54.3853 33.3759 54.0724 33.3759C53.7595 33.3759 53.4936 33.3059 53.2714 33.166C53.0492 33.0261 52.8803 32.8353 52.7645 32.5968C52.6487 32.3583 52.5893 32.0912 52.5893 31.7955C52.5893 31.4998 52.6487 31.2231 52.7676 30.9847C52.8865 30.7462 53.0586 30.5586 53.2839 30.4218C53.5092 30.2851 53.772 30.2152 54.0724 30.2152C54.3728 30.2152 54.645 30.2851 54.8641 30.4218C55.0862 30.5586 55.2552 30.7462 55.3772 30.9847C55.4961 31.2231 55.5556 31.4934 55.5556 31.7955C55.5556 32.0976 55.4961 32.3583 55.3804 32.5968Z" fill="#123828"/>
<path d="M59.6202 29.5474H59.5889C59.2384 29.5474 58.9506 29.6237 58.7221 29.7731C58.4937 29.9226 58.3216 30.1452 58.209 30.4313C58.1808 30.5045 58.1558 30.5808 58.1339 30.6635V29.6746H57.5394V33.9132H58.2903V31.3821C58.2903 31.0387 58.3905 30.762 58.5938 30.5554C58.7972 30.3487 59.0632 30.2469 59.3917 30.2469C59.7203 30.2469 59.9581 30.3455 60.1427 30.5458C60.3242 30.743 60.4149 31.0069 60.4149 31.3344V33.9132H61.1659V31.4902C61.1659 30.8606 61.0407 30.3773 60.7873 30.0466C60.5338 29.7127 60.1458 29.5474 59.6202 29.5474Z" fill="#123828"/>
<path d="M66.2129 30.2183C66.0189 30.0085 65.7843 29.8431 65.5089 29.7191C65.2336 29.5951 64.9175 29.5315 64.5639 29.5315C64.2104 29.5315 63.8943 29.5951 63.619 29.7191C63.3436 29.8431 63.109 30.0116 62.915 30.2183C62.721 30.4282 62.577 30.6635 62.4769 30.9242C62.3768 31.185 62.3298 31.4521 62.3298 31.7224V31.8655C62.3298 32.1357 62.3768 32.3997 62.4738 32.6604C62.5708 32.9212 62.7147 33.1533 62.9024 33.3631C63.0933 33.573 63.3249 33.7415 63.6033 33.8687C63.8787 33.9959 64.201 34.0595 64.5639 34.0595C64.9269 34.0595 65.2492 33.9959 65.5246 33.8687C65.7999 33.7415 66.0346 33.573 66.2223 33.3631C66.4132 33.1533 66.5571 32.9212 66.651 32.6604C66.748 32.3997 66.7949 32.1357 66.7949 31.8655V31.7224C66.7949 31.4521 66.7449 31.185 66.6479 30.9242C66.5477 30.6635 66.4038 30.4282 66.2098 30.2183H66.2129ZM65.8719 32.5968C65.753 32.8353 65.584 33.0229 65.365 33.166C65.1428 33.3059 64.8768 33.3759 64.5639 33.3759C64.251 33.3759 63.9851 33.3059 63.7629 33.166C63.5408 33.0261 63.3718 32.8353 63.256 32.5968C63.1371 32.3583 63.0808 32.0912 63.0808 31.7955C63.0808 31.4998 63.1402 31.2231 63.2592 30.9847C63.3781 30.7462 63.5502 30.5586 63.7754 30.4218C64.0007 30.2851 64.2636 30.2152 64.5639 30.2152C64.8643 30.2152 65.1366 30.2851 65.3556 30.4218C65.5777 30.5586 65.7467 30.7462 65.8687 30.9847C65.9908 31.2231 66.0471 31.4934 66.0471 31.7955C66.0471 32.0976 65.9876 32.3583 65.8719 32.5968Z" fill="#123828"/>
<path d="M70.1117 29.5474H70.0804C69.73 29.5474 69.4421 29.6237 69.2137 29.7731C68.9853 29.9226 68.8132 30.1452 68.7006 30.4313C68.6724 30.5045 68.6474 30.5808 68.6255 30.6635V29.6746H68.0309V33.9132H68.7819V31.3821C68.7819 31.0387 68.8852 30.762 69.0854 30.5554C69.2888 30.3487 69.5548 30.2469 69.8833 30.2469C70.2119 30.2469 70.4497 30.3455 70.6343 30.5458C70.8158 30.743 70.9065 31.0069 70.9065 31.3344V33.9132H71.6575V31.4902C71.6575 30.8606 71.5323 30.3773 71.2789 30.0466C71.0254 29.7159 70.6374 29.5474 70.1117 29.5474Z" fill="#123828"/>
<path d="M75.8284 31.8305C75.5562 31.6269 75.1995 31.4998 74.7489 31.4521L74.2952 31.4044C74.0511 31.3789 73.8759 31.3185 73.7664 31.2231C73.66 31.1277 73.6068 31.0005 73.6068 30.8415C73.6068 30.6571 73.6819 30.5013 73.8321 30.3805C73.9823 30.2596 74.2045 30.1992 74.4955 30.1992C74.7865 30.1992 75.0086 30.2596 75.1557 30.3773C75.3028 30.4949 75.381 30.6412 75.3872 30.8097H76.0913C76.0819 30.3932 75.9286 30.0784 75.6376 29.8653C75.3466 29.6523 74.9648 29.5474 74.4955 29.5474C74.1826 29.5474 73.9072 29.5982 73.6663 29.7032C73.4253 29.8049 73.2376 29.9544 73.1031 30.1483C72.9685 30.3423 72.8997 30.5744 72.8997 30.8447C72.8997 31.204 73.0248 31.4839 73.2751 31.681C73.5255 31.8782 73.8478 31.999 74.2451 32.0435L74.6988 32.0912C74.9898 32.123 75.2026 32.1866 75.3309 32.2852C75.4623 32.3837 75.5249 32.5205 75.5249 32.6954C75.5249 32.8925 75.4373 33.0579 75.2589 33.1914C75.0806 33.325 74.8271 33.3949 74.4923 33.3949C74.1231 33.3949 73.8603 33.3218 73.707 33.1755C73.5536 33.0292 73.4723 32.8766 73.4598 32.7113H72.7557C72.7651 33.1246 72.9216 33.449 73.222 33.6875C73.5223 33.9259 73.9448 34.0436 74.4923 34.0436C74.8303 34.0436 75.1307 33.9864 75.3904 33.8719C75.6501 33.7574 75.8566 33.5984 76.0036 33.3949C76.1507 33.1914 76.2258 32.9561 76.2258 32.6922C76.2258 32.3201 76.0913 32.034 75.819 31.8305H75.8284Z" fill="#123828"/>
<path d="M81.4012 29.5474H81.3699C81.0194 29.5474 80.7316 29.6237 80.5031 29.7731C80.2747 29.9226 80.1026 30.1452 79.99 30.4313C79.9618 30.5045 79.9368 30.5808 79.9149 30.6635V29.6746H79.3204V33.9132H80.0713V31.3821C80.0713 31.0387 80.1715 30.762 80.3748 30.5554C80.5782 30.3487 80.8442 30.2469 81.1728 30.2469C81.5013 30.2469 81.7391 30.3455 81.9237 30.5458C82.1052 30.743 82.1959 31.0069 82.1959 31.3344V33.9132H82.9469V31.4902C82.9469 30.8606 82.8217 30.3773 82.5683 30.0466C82.3148 29.7159 81.9268 29.5474 81.4012 29.5474Z" fill="#123828"/>
<path d="M87.994 30.2183C87.8 30.0085 87.5685 29.8431 87.29 29.7191C87.0146 29.5951 86.6986 29.5315 86.345 29.5315C85.9914 29.5315 85.6754 29.5951 85.4001 29.7191C85.1247 29.8431 84.89 30.0116 84.696 30.2183C84.502 30.4282 84.3581 30.6635 84.258 30.9242C84.1578 31.185 84.1109 31.4521 84.1109 31.7224V31.8655C84.1109 32.1357 84.1578 32.3997 84.2548 32.6604C84.3518 32.9212 84.4958 33.1533 84.6835 33.3631C84.8744 33.573 85.1059 33.7415 85.3813 33.8687C85.6566 33.9959 85.9789 34.0595 86.3419 34.0595C86.7049 34.0595 87.0271 33.9959 87.3025 33.8687C87.5778 33.7415 87.8125 33.573 88.0034 33.3631C88.1943 33.1533 88.3351 32.9212 88.4321 32.6604C88.5291 32.3997 88.576 32.1357 88.576 31.8655V31.7224C88.576 31.4521 88.5259 31.185 88.4289 30.9242C88.3319 30.6635 88.1849 30.4282 87.9909 30.2183H87.994ZM87.6529 32.5968C87.5372 32.8353 87.3651 33.0229 87.146 33.166C86.9239 33.3059 86.6579 33.3759 86.345 33.3759C86.0321 33.3759 85.7662 33.3059 85.544 33.166C85.3218 33.0261 85.1529 32.8353 85.0371 32.5968C84.9213 32.3583 84.8619 32.0912 84.8619 31.7955C84.8619 31.4998 84.9213 31.2231 85.0402 30.9847C85.1591 30.7462 85.3312 30.5586 85.5565 30.4218C85.7818 30.2851 86.0446 30.2152 86.345 30.2152C86.6454 30.2152 86.9176 30.2851 87.1367 30.4218C87.3588 30.5586 87.5278 30.7462 87.6467 30.9847C87.7656 31.2231 87.825 31.4934 87.825 31.7955C87.825 32.0976 87.7656 32.3583 87.6498 32.5968H87.6529Z" fill="#123828"/>
<path d="M92.5092 31.8305C92.2369 31.6269 91.8802 31.4998 91.4296 31.4521L90.9759 31.4044C90.7319 31.3789 90.5567 31.3185 90.4471 31.2231C90.3407 31.1277 90.2876 31.0005 90.2876 30.8415C90.2876 30.6571 90.3627 30.5013 90.5128 30.3805C90.663 30.2596 90.8852 30.1992 91.1762 30.1992C91.4672 30.1992 91.6894 30.2596 91.8364 30.3773C91.9835 30.4949 92.0617 30.6412 92.068 30.8097H92.772C92.7626 30.3932 92.6093 30.0784 92.3183 29.8653C92.0273 29.6523 91.6456 29.5474 91.1762 29.5474C90.8633 29.5474 90.5879 29.5982 90.347 29.7032C90.1061 29.8049 89.9183 29.9544 89.7838 30.1483C89.6492 30.3423 89.5804 30.5744 89.5804 30.8447C89.5804 31.204 89.7056 31.4839 89.9559 31.681C90.2062 31.8782 90.5285 31.999 90.9259 32.0435L91.3796 32.0912C91.6706 32.123 91.8834 32.1866 92.0116 32.2852C92.1431 32.3837 92.2056 32.5205 92.2056 32.6954C92.2056 32.8925 92.118 33.0579 91.9397 33.1914C91.7613 33.325 91.5079 33.3949 91.1731 33.3949C90.8038 33.3949 90.541 33.3218 90.3877 33.1755C90.2344 33.0292 90.153 32.8766 90.1405 32.7113H89.4365C89.4458 33.1246 89.6023 33.449 89.9027 33.6875C90.2031 33.9259 90.6255 34.0436 91.1731 34.0436C91.511 34.0436 91.8114 33.9864 92.0711 33.8719C92.3308 33.7574 92.5373 33.5984 92.6844 33.3949C92.8314 33.1914 92.9065 32.9561 92.9065 32.6922C92.9065 32.3201 92.772 32.034 92.4998 31.8305H92.5092Z" fill="#123828"/>
<path d="M99.3461 30.514C99.3335 30.4854 99.321 30.4568 99.3085 30.4282C99.1521 30.1357 98.9393 29.9162 98.6702 29.7604C98.4011 29.6078 98.0913 29.5315 97.7377 29.5315C97.4311 29.5315 97.1526 29.5855 96.9023 29.6968C96.652 29.8081 96.4361 29.9639 96.2546 30.1611C96.0731 30.3582 95.9323 30.5872 95.8322 30.8479C95.7321 31.1087 95.6851 31.3885 95.6851 31.6906V31.8337C95.6851 32.1357 95.7352 32.4187 95.8322 32.6858C95.9292 32.953 96.07 33.1883 96.2515 33.3949C96.433 33.6016 96.6457 33.7638 96.8929 33.8783C97.1401 33.9959 97.4123 34.0532 97.7096 34.0532C98.0225 34.0532 98.3104 33.9832 98.5732 33.8401C98.8235 33.7034 99.03 33.4935 99.1927 33.2169V35.5H99.9437V29.6714H99.3492V30.5109L99.3461 30.514ZM98.5325 33.1819C98.3229 33.2995 98.0913 33.3568 97.8379 33.3568C97.5657 33.3568 97.3247 33.29 97.1119 33.1596C96.8992 33.0293 96.7333 32.8417 96.6113 32.6C96.4924 32.3583 96.433 32.0785 96.433 31.7637C96.433 31.4489 96.4924 31.1659 96.6082 30.9274C96.7271 30.6858 96.8898 30.5013 97.0994 30.3678C97.3091 30.2342 97.5563 30.1706 97.8379 30.1706C98.0819 30.1706 98.3104 30.2247 98.52 30.3328C98.7296 30.4409 98.8986 30.5967 99.0269 30.8002C99.1552 31.0037 99.2178 31.2518 99.2178 31.5411V31.9068C99.2178 32.2025 99.1552 32.4601 99.03 32.6795C98.9049 32.8989 98.739 33.0674 98.5294 33.1851L98.5325 33.1819Z" fill="#123828"/>
<path d="M104.18 32.1993C104.18 32.5555 104.08 32.8321 103.883 33.0356C103.686 33.2391 103.429 33.3409 103.116 33.3409C102.804 33.3409 102.575 33.2487 102.397 33.0579C102.218 32.8703 102.131 32.6095 102.131 32.2757V29.665H101.38V32.1262C101.38 32.7463 101.511 33.22 101.777 33.5476C102.043 33.8751 102.422 34.0404 102.919 34.0404H102.951C103.285 34.0404 103.558 33.9641 103.774 33.8147C103.989 33.6652 104.152 33.4458 104.262 33.1565C104.29 33.0865 104.312 33.0102 104.331 32.9339V33.9164H104.925V29.6682H104.174V32.1993H104.18Z" fill="#123828"/>
<path d="M110.063 30.2183C109.869 30.0085 109.637 29.8431 109.359 29.7191C109.084 29.5951 108.768 29.5315 108.414 29.5315C108.06 29.5315 107.744 29.5951 107.469 29.7191C107.194 29.8431 106.959 30.0116 106.765 30.2183C106.571 30.4282 106.427 30.6635 106.327 30.9242C106.227 31.185 106.18 31.4521 106.18 31.7224V31.8655C106.18 32.1357 106.227 32.3997 106.324 32.6604C106.421 32.9212 106.565 33.1533 106.752 33.3631C106.943 33.573 107.175 33.7415 107.45 33.8687C107.726 33.9959 108.048 34.0595 108.411 34.0595C108.774 34.0595 109.096 33.9959 109.371 33.8687C109.647 33.7415 109.881 33.573 110.072 33.3631C110.263 33.1533 110.404 32.9212 110.501 32.6604C110.598 32.3997 110.645 32.1357 110.645 31.8655V31.7224C110.645 31.4521 110.595 31.185 110.498 30.9242C110.401 30.6635 110.254 30.4282 110.06 30.2183H110.063ZM109.722 32.5968C109.606 32.8353 109.434 33.0229 109.215 33.166C108.993 33.3059 108.727 33.3759 108.414 33.3759C108.101 33.3759 107.835 33.3059 107.613 33.166C107.391 33.0261 107.222 32.8353 107.106 32.5968C106.99 32.3583 106.931 32.0912 106.931 31.7955C106.931 31.4998 106.99 31.2231 107.109 30.9847C107.228 30.7462 107.4 30.5586 107.625 30.4218C107.851 30.2851 108.114 30.2152 108.414 30.2152C108.714 30.2152 108.987 30.2851 109.206 30.4218C109.428 30.5586 109.597 30.7462 109.716 30.9847C109.834 31.2231 109.894 31.4934 109.894 31.7955C109.894 32.0976 109.834 32.3583 109.719 32.5968H109.722Z" fill="#123828"/>
<path d="M112.713 28.3899H111.993V29.6745H111.274V30.2469H111.993V32.4696C111.993 32.8448 112.056 33.1437 112.178 33.3631C112.3 33.5825 112.475 33.7383 112.701 33.8273C112.926 33.9164 113.195 33.9609 113.508 33.9609H114.149V33.2772H113.414C113.189 33.2772 113.017 33.2136 112.895 33.0896C112.773 32.9656 112.71 32.7907 112.71 32.5618V30.2437H114.146V29.6714H112.71V28.3867L112.713 28.3899Z" fill="#123828"/>
<path d="M115.736 28.9908C115.902 28.9908 116.027 28.9463 116.108 28.8572C116.189 28.7682 116.23 28.6537 116.23 28.517C116.23 28.3803 116.189 28.2658 116.108 28.1768C116.027 28.0877 115.905 28.0432 115.736 28.0432C115.567 28.0432 115.445 28.0877 115.363 28.1768C115.282 28.2658 115.241 28.3803 115.241 28.517C115.241 28.6537 115.282 28.7682 115.363 28.8572C115.445 28.9463 115.567 28.9908 115.736 28.9908Z" fill="#123828"/>
<path d="M114.885 29.6746V30.2787H115.523V33.9164H116.274V30.2787V29.6746H115.523H114.885Z" fill="#123828"/>
<path d="M121.024 30.32C120.861 30.0593 120.661 29.8622 120.414 29.735C120.154 29.6014 119.863 29.5315 119.547 29.5315C119.231 29.5315 118.971 29.5887 118.724 29.7032C118.477 29.8176 118.264 29.9734 118.083 30.177C117.901 30.3805 117.763 30.6126 117.663 30.8765C117.563 31.1404 117.516 31.4234 117.516 31.7255V31.8686C117.516 32.1739 117.566 32.46 117.67 32.7272C117.773 32.9943 117.914 33.2232 118.098 33.4267C118.283 33.6302 118.502 33.7828 118.749 33.8941C118.996 34.0054 119.272 34.0595 119.569 34.0595C119.866 34.0595 120.163 33.9927 120.432 33.856C120.702 33.7224 120.924 33.503 121.099 33.2041C121.127 33.1532 121.152 33.0992 121.177 33.0451V33.9164H121.772V28.1196H121.021V30.32H121.024ZM121.055 31.9386C121.055 32.2343 120.993 32.4918 120.867 32.7113C120.742 32.9307 120.576 33.0992 120.367 33.2137C120.157 33.3313 119.926 33.3885 119.672 33.3885C119.4 33.3885 119.159 33.325 118.946 33.1946C118.733 33.0642 118.568 32.8798 118.446 32.6381C118.327 32.3965 118.267 32.1166 118.267 31.7923C118.267 31.468 118.327 31.1881 118.442 30.9496C118.561 30.7112 118.724 30.5267 118.934 30.3932C119.143 30.2596 119.387 30.196 119.663 30.196C119.913 30.196 120.145 30.2501 120.354 30.3582C120.564 30.4663 120.733 30.6221 120.861 30.8256C120.989 31.0291 121.052 31.2772 121.052 31.5665V31.9322L121.055 31.9386Z" fill="#123828"/>
<path d="M122.876 29.6746V30.2787H123.518V33.9164H124.266V30.2787V29.6746H123.518H122.876Z" fill="#123828"/>
<path d="M123.727 28.9908C123.893 28.9908 124.018 28.9463 124.1 28.8572C124.181 28.7682 124.222 28.6537 124.222 28.517C124.222 28.3803 124.181 28.2658 124.1 28.1768C124.018 28.0877 123.896 28.0432 123.727 28.0432C123.558 28.0432 123.436 28.0877 123.355 28.1768C123.274 28.2658 123.233 28.3803 123.233 28.517C123.233 28.6537 123.274 28.7682 123.355 28.8572C123.436 28.9463 123.558 28.9908 123.727 28.9908Z" fill="#123828"/>
<path d="M128.668 29.8304C128.374 29.6332 128.002 29.5315 127.548 29.5315C127.197 29.5315 126.897 29.5951 126.637 29.7191C126.381 29.8431 126.168 30.0116 125.999 30.2183C125.833 30.4282 125.708 30.6603 125.627 30.9211C125.545 31.1818 125.505 31.4489 125.505 31.7224V31.8655C125.505 32.1357 125.545 32.3997 125.627 32.6604C125.708 32.9212 125.83 33.1533 125.999 33.3631C126.165 33.573 126.381 33.7415 126.647 33.8687C126.913 33.9959 127.229 34.0595 127.592 34.0595C127.92 34.0595 128.214 34.0055 128.474 33.8942C128.734 33.7829 128.95 33.6207 129.122 33.4108C129.294 33.201 129.41 32.9466 129.466 32.6572H128.762C128.721 32.8544 128.596 33.0261 128.39 33.1724C128.183 33.3218 127.917 33.3949 127.588 33.3949C127.26 33.3949 127.019 33.325 126.816 33.1851C126.612 33.0452 126.462 32.8544 126.365 32.6127C126.284 32.4124 126.24 32.1866 126.227 31.9418H129.535V31.6015C129.535 31.2486 129.463 30.9147 129.319 30.5999C129.175 30.2851 128.956 30.0307 128.662 29.8336L128.668 29.8304ZM126.809 30.4059C127.003 30.2692 127.251 30.1993 127.548 30.1993C127.845 30.1993 128.07 30.2597 128.258 30.3805C128.446 30.5013 128.587 30.673 128.681 30.8924C128.74 31.0324 128.774 31.1913 128.796 31.3662H126.262C126.287 31.2231 126.321 31.0928 126.371 30.9688C126.468 30.7303 126.612 30.5427 126.809 30.4059Z" fill="#123828"/>
<path d="M132.789 29.5474H132.758C132.407 29.5474 132.119 29.6237 131.891 29.7731C131.662 29.9226 131.49 30.1452 131.378 30.4313C131.35 30.5045 131.325 30.5808 131.303 30.6635V29.6746H130.708V33.9132H131.459V31.3821C131.459 31.0387 131.559 30.762 131.763 30.5554C131.966 30.3487 132.232 30.2469 132.56 30.2469C132.889 30.2469 133.127 30.3455 133.311 30.5458C133.493 30.743 133.584 31.0069 133.584 31.3344V33.9132H134.335V31.4902C134.335 30.8606 134.209 30.3773 133.956 30.0466C133.703 29.7159 133.315 29.5474 132.789 29.5474Z" fill="#123828"/>
<path d="M138.509 31.8305C138.237 31.6269 137.88 31.4998 137.429 31.4521L136.976 31.4044C136.731 31.3789 136.556 31.3185 136.447 31.2231C136.34 31.1277 136.287 31.0005 136.287 30.8415C136.287 30.6571 136.362 30.5013 136.512 30.3805C136.663 30.2596 136.885 30.1992 137.176 30.1992C137.467 30.1992 137.689 30.2596 137.836 30.3773C137.983 30.4949 138.061 30.6412 138.068 30.8097H138.772C138.762 30.3932 138.609 30.0784 138.318 29.8653C138.027 29.6523 137.645 29.5474 137.176 29.5474C136.863 29.5474 136.588 29.5982 136.347 29.7032C136.106 29.8049 135.918 29.9544 135.783 30.1483C135.649 30.3423 135.58 30.5744 135.58 30.8447C135.58 31.204 135.705 31.4839 135.955 31.681C136.206 31.8782 136.528 31.999 136.925 32.0435L137.379 32.0912C137.67 32.123 137.883 32.1866 138.011 32.2852C138.143 32.3837 138.205 32.5205 138.205 32.6954C138.205 32.8925 138.118 33.0579 137.939 33.1914C137.761 33.325 137.507 33.3949 137.173 33.3949C136.803 33.3949 136.541 33.3218 136.387 33.1755C136.234 33.0292 136.153 32.8766 136.14 32.7113H135.436C135.445 33.1246 135.602 33.449 135.902 33.6875C136.203 33.9259 136.625 34.0436 137.173 34.0436C137.511 34.0436 137.811 33.9864 138.071 33.8719C138.33 33.7574 138.537 33.5984 138.684 33.3949C138.831 33.1914 138.906 32.9561 138.906 32.6922C138.906 32.3201 138.772 32.034 138.499 31.8305H138.509Z" fill="#123828"/>
<path d="M6.43324 0.595459C2.88182 0.595459 0 3.52405 0 7.13312V10.615H6.19544V6.89145H16.2677V0.595459H6.43324Z" fill="#37AB49"/>
<path d="M6.19543 16.8824C9.5998 16.8824 12.3596 14.0778 12.3596 10.6182H6.19543V16.8824Z" fill="#37AB49"/>
<path d="M6.1956 23.1497V16.8855H0.0283203C0.0283203 20.3451 2.78811 23.1497 6.1956 23.1497Z" fill="#37AB49"/>
</svg>
