<svg width="142" height="1367" viewBox="0 0 142 1367" fill="none" xmlns="http://www.w3.org/2000/svg">
<line y1="-6.5" x2="124.036" y2="-6.5" transform="matrix(4.37114e-08 1 1 -4.37114e-08 142 627)" stroke="#ED776E" stroke-width="13"/>
<line y1="-6.5" x2="124.036" y2="-6.5" transform="matrix(4.37114e-08 1 1 -4.37114e-08 13 830)" stroke="#ED776E" stroke-width="13"/>
<line y1="-6.5" x2="49" y2="-6.5" transform="matrix(1 0 0 -1 46 784)" stroke="#ED776E" stroke-width="13"/>
<mask id="path-4-inside-1_94_203" fill="white">
<path d="M95 797C107.465 797 119.42 792.048 128.234 783.234C137.048 774.42 142 762.465 142 750L128.991 750C128.991 759.015 125.41 767.661 119.035 774.035C112.661 780.41 104.015 783.991 95 783.991L95 797Z"/>
</mask>
<path d="M95 797C107.465 797 119.42 792.048 128.234 783.234C137.048 774.42 142 762.465 142 750L128.991 750C128.991 759.015 125.41 767.661 119.035 774.035C112.661 780.41 104.015 783.991 95 783.991L95 797Z" fill="#ED776E" stroke="#ED776E" stroke-width="2" mask="url(#path-4-inside-1_94_203)"/>
<mask id="path-5-inside-2_94_203" fill="white">
<path d="M47 784C34.5348 784 22.5802 788.952 13.766 797.766C4.95177 806.58 2.31979e-07 818.535 -5.60469e-07 831L13.0093 831C13.0093 821.985 16.5904 813.339 22.9649 806.965C29.3394 800.59 37.9851 797.009 47 797.009L47 784Z"/>
</mask>
<path d="M47 784C34.5348 784 22.5802 788.952 13.766 797.766C4.95177 806.58 2.31979e-07 818.535 -5.60469e-07 831L13.0093 831C13.0093 821.985 16.5904 813.339 22.9649 806.965C29.3394 800.59 37.9851 797.009 47 797.009L47 784Z" fill="#ED776E" stroke="#ED776E" stroke-width="2" mask="url(#path-5-inside-2_94_203)"/>
<line x1="6.5" y1="837" x2="6.49999" y2="961.036" stroke="#ED776E" stroke-width="13"/>
<line x1="135.5" y1="1040" x2="135.5" y2="1164.04" stroke="#ED776E" stroke-width="13"/>
<line x1="96" y1="1000.5" x2="47" y2="1000.5" stroke="#ED776E" stroke-width="13"/>
<mask id="path-9-inside-3_94_203" fill="white">
<path d="M47 1007C34.5348 1007 22.5802 1002.05 13.766 993.234C4.95177 984.42 -1.65821e-06 972.465 -2.05444e-06 960L13.0093 960C13.0093 969.015 16.5904 977.661 22.9649 984.035C29.3394 990.41 37.9851 993.991 47 993.991L47 1007Z"/>
</mask>
<path d="M47 1007C34.5348 1007 22.5802 1002.05 13.766 993.234C4.95177 984.42 -1.65821e-06 972.465 -2.05444e-06 960L13.0093 960C13.0093 969.015 16.5904 977.661 22.9649 984.035C29.3394 990.41 37.9851 993.991 47 993.991L47 1007Z" fill="#ED776E" stroke="#ED776E" stroke-width="2" mask="url(#path-9-inside-3_94_203)"/>
<mask id="path-10-inside-4_94_203" fill="white">
<path d="M95 994C107.465 994 119.42 998.952 128.234 1007.77C137.048 1016.58 142 1028.53 142 1041L128.991 1041C128.991 1031.99 125.41 1023.34 119.035 1016.96C112.661 1010.59 104.015 1007.01 95 1007.01L95 994Z"/>
</mask>
<path d="M95 994C107.465 994 119.42 998.952 128.234 1007.77C137.048 1016.58 142 1028.53 142 1041L128.991 1041C128.991 1031.99 125.41 1023.34 119.035 1016.96C112.661 1010.59 104.015 1007.01 95 1007.01L95 994Z" fill="#ED776E" stroke="#ED776E" stroke-width="2" mask="url(#path-10-inside-4_94_203)"/>
<line y1="-6.5" x2="124.036" y2="-6.5" transform="matrix(4.37114e-08 1 1 -4.37114e-08 13 1242)" stroke="#ED776E" stroke-width="13"/>
<line y1="-6.5" x2="49" y2="-6.5" transform="matrix(1 0 0 -1 46 1196)" stroke="#ED776E" stroke-width="13"/>
<path d="M95 1209C107.465 1209 119.42 1204.05 128.234 1195.23C137.048 1186.42 142 1174.47 142 1162L128.991 1162C128.991 1171.01 125.41 1179.66 119.035 1186.04C112.661 1192.41 104.015 1195.99 95 1195.99L95 1209Z" fill="#ED776E"/>
<path d="M47 1196C34.5348 1196 22.5802 1200.95 13.766 1209.77C4.95177 1218.58 2.31979e-07 1230.53 -5.60469e-07 1243L13.0093 1243C13.0093 1233.99 16.5904 1225.34 22.9649 1218.96C29.3394 1212.59 37.9851 1209.01 47 1209.01L47 1196Z" fill="#ED776E"/>
<line x1="6.5" y1="2.84124e-07" x2="6.49999" y2="124.036" stroke="#ED776E" stroke-width="13"/>
<line x1="135.5" y1="203" x2="135.5" y2="327.036" stroke="#ED776E" stroke-width="13"/>
<line x1="96" y1="163.5" x2="47" y2="163.5" stroke="#ED776E" stroke-width="13"/>
<mask id="path-18-inside-5_94_203" fill="white">
<path d="M47 170C34.5348 170 22.5802 165.048 13.766 156.234C4.95177 147.42 -1.65821e-06 135.465 -2.05444e-06 123L13.0093 123C13.0093 132.015 16.5904 140.661 22.9649 147.035C29.3394 153.41 37.9851 156.991 47 156.991L47 170Z"/>
</mask>
<path d="M47 170C34.5348 170 22.5802 165.048 13.766 156.234C4.95177 147.42 -1.65821e-06 135.465 -2.05444e-06 123L13.0093 123C13.0093 132.015 16.5904 140.661 22.9649 147.035C29.3394 153.41 37.9851 156.991 47 156.991L47 170Z" fill="#ED776E" stroke="#ED776E" stroke-width="2" mask="url(#path-18-inside-5_94_203)"/>
<mask id="path-19-inside-6_94_203" fill="white">
<path d="M95 157C107.465 157 119.42 161.952 128.234 170.766C137.048 179.58 142 191.535 142 204L128.991 204C128.991 194.985 125.41 186.339 119.035 179.965C112.661 173.59 104.015 170.009 95 170.009L95 157Z"/>
</mask>
<path d="M95 157C107.465 157 119.42 161.952 128.234 170.766C137.048 179.58 142 191.535 142 204L128.991 204C128.991 194.985 125.41 186.339 119.035 179.965C112.661 173.59 104.015 170.009 95 170.009L95 157Z" fill="#ED776E" stroke="#ED776E" stroke-width="2" mask="url(#path-19-inside-6_94_203)"/>
<line y1="-6.5" x2="124.036" y2="-6.5" transform="matrix(4.37114e-08 1 1 -4.37114e-08 142 210)" stroke="#ED776E" stroke-width="13"/>
<line y1="-6.5" x2="124.036" y2="-6.5" transform="matrix(4.37114e-08 1 1 -4.37114e-08 13 413)" stroke="#ED776E" stroke-width="13"/>
<line y1="-6.5" x2="49" y2="-6.5" transform="matrix(1 0 0 -1 46 367)" stroke="#ED776E" stroke-width="13"/>
<mask id="path-23-inside-7_94_203" fill="white">
<path d="M95 380C107.465 380 119.42 375.048 128.234 366.234C137.048 357.42 142 345.465 142 333L128.991 333C128.991 342.015 125.41 350.661 119.035 357.035C112.661 363.41 104.015 366.991 95 366.991L95 380Z"/>
</mask>
<path d="M95 380C107.465 380 119.42 375.048 128.234 366.234C137.048 357.42 142 345.465 142 333L128.991 333C128.991 342.015 125.41 350.661 119.035 357.035C112.661 363.41 104.015 366.991 95 366.991L95 380Z" fill="#ED776E" stroke="#ED776E" stroke-width="2" mask="url(#path-23-inside-7_94_203)"/>
<mask id="path-24-inside-8_94_203" fill="white">
<path d="M47 367C34.5348 367 22.5802 371.952 13.766 380.766C4.95177 389.58 2.31979e-07 401.535 -5.60469e-07 414L13.0093 414C13.0093 404.985 16.5904 396.339 22.9649 389.965C29.3394 383.59 37.9851 380.009 47 380.009L47 367Z"/>
</mask>
<path d="M47 367C34.5348 367 22.5802 371.952 13.766 380.766C4.95177 389.58 2.31979e-07 401.535 -5.60469e-07 414L13.0093 414C13.0093 404.985 16.5904 396.339 22.9649 389.965C29.3394 383.59 37.9851 380.009 47 380.009L47 367Z" fill="#ED776E" stroke="#ED776E" stroke-width="2" mask="url(#path-24-inside-8_94_203)"/>
<line x1="135.5" y1="615" x2="135.5" y2="739.036" stroke="#ED776E" stroke-width="13"/>
<line x1="96" y1="575.5" x2="47" y2="575.5" stroke="#ED776E" stroke-width="13"/>
<path d="M47 582C34.5348 582 22.5802 577.048 13.766 568.234C4.95177 559.42 -1.65821e-06 547.465 -2.05444e-06 535L13.0093 535C13.0093 544.015 16.5904 552.661 22.9649 559.035C29.3394 565.41 37.9851 568.991 47 568.991L47 582Z" fill="#ED776E"/>
<path d="M95 569C107.465 569 119.42 573.952 128.234 582.766C137.048 591.58 142 603.535 142 616L128.991 616C128.991 606.985 125.41 598.339 119.035 591.965C112.661 585.59 104.015 582.009 95 582.009L95 569Z" fill="#ED776E"/>
</svg>
